# xmcd
#
# Track frame offsets:
#	150
#	23684
#	42645
#	57377
#	81887
#	105718
#	123470
#	134056
#	148490
#	164682
#	186480
#	200542
#	225107
#	240753
#
# Disc length: 3419 seconds
#
# Revision: 3
# Processed by: cddbd v1.5.2PL0 Copyright (c) Steve Scherf et al.
# Submitted via: EasyCDDAExtractor 2010.6.0.0
#
DISCID=cc0d590e
DTITLE=Various Artist - Emozioni In Musica-14-Canzoni Per Noi Due
DYEAR=1997
DGENRE=Italiani
TTITLE0=Lucio Dalla - Anna E Marco 1979
TTITLE1=Ornella Vanoni - Amarsi Un Po' 1986
TTITLE2=Alberto Camerini - Sintonizzati Con Me 1995
TTITLE3=Umberto Bindi - Il Nostro Concerto 1960
TTITLE4=Mango - Bella D'estate 1987
TTITLE5=Don Backy - Bianchi Cristalli Sereni 1971
TTITLE6=Equipe 84 - Io Ho In Mente Te 1966
TTITLE7=Lucio Battisti - La Mia Canzone Per Maria 1968
TTITLE8=Riccardo Del Turco - Cosa Hai Messo Nel Caffè 1968
TTITLE9=Mimmo Locasciulli - Svegliami Domattina 19982
TTITLE10=Mino Reitano - Avevo Un Cuore (Che Ti Amava Tanto) 1996
TTITLE11=Enzo Gragnaniello - Cu'mme! 1992
TTITLE12=Tony Renis - Il Posto Mio 1968
TTITLE13=Fausto Leali - Mi Manchi 1988
EXTD=YEAR: 1997
EXTT0=
EXTT1=
EXTT2=
EXTT3=
EXTT4=
EXTT5=
EXTT6=
EXTT7=
EXTT8=
EXTT9=
EXTT10=
EXTT11=
EXTT12=
EXTT13=
PLAYORDER=
